<svg version="1.0" xmlns="http://www.w3.org/2000/svg"
  role="img" class="iconify iconify--logos" width="31.88" height="32" viewBox="0 0 500.000000 500.000000"
 preserveAspectRatio="xMidYMid meet">

<g transform="translate(0.000000,500.000000) scale(0.100000,-0.100000)"
fill="#000000" stroke="none">
<path d="M1950 3410 c-638 -5 -830 -9 -849 -19 -20 -11 -23 -18 -18 -54 6 -54
246 -744 264 -763 8 -8 25 -14 37 -14 13 0 153 45 312 101 159 55 495 172 748
260 252 88 487 173 522 189 35 17 66 30 69 30 3 0 52 22 108 49 56 27 113 52
127 56 23 7 91 38 269 122 40 19 79 36 87 37 7 1 17 5 20 9 8 8 -438 7 -1696
-3z"/>
</g>
</svg>
